<svg width="24" height="24" viewBox="0 0 24 24" fill="none" xmlns="http://www.w3.org/2000/svg">
<path d="M11.9891 2C6.4698 2 2.00037 6.47943 2.00037 11.9987C2.00037 17.518 6.4698 21.9974 11.9891 21.9974C17.5184 21.9974 21.9978 17.518 21.9978 11.9987C21.9978 6.47943 17.5184 2 11.9891 2ZM11.9991 19.9977C7.57965 19.9977 4.00011 16.4182 4.00011 11.9987C4.00011 7.57929 7.57965 3.99974 11.9991 3.99974C16.4185 3.99974 19.9981 7.57929 19.9981 11.9987C19.9981 16.4182 16.4185 19.9977 11.9991 19.9977ZM11.7791 6.99936H11.7191C11.3192 6.99936 10.9992 7.31932 10.9992 7.71927V12.4387C10.9992 12.7886 11.1792 13.1186 11.4892 13.2986L15.6386 15.7882C15.9786 15.9882 16.4185 15.8882 16.6185 15.5483C16.6687 15.4673 16.7021 15.3771 16.7167 15.2829C16.7313 15.1888 16.7268 15.0927 16.7035 15.0003C16.6802 14.9079 16.6385 14.8212 16.5809 14.7453C16.5234 14.6694 16.4512 14.6058 16.3685 14.5584L12.499 12.2587V7.71927C12.499 7.31932 12.1791 6.99936 11.7791 6.99936Z" fill="#1F1F2D"/>
</svg>
