<svg width="24" height="24" viewBox="0 0 24 24" fill="none" xmlns="http://www.w3.org/2000/svg">
<path d="M13.0688 10.4082C13.6762 9.55961 14.0028 8.54219 14.0028 7.49861C14.0028 6.45503 13.6762 5.43761 13.0688 4.58899C13.6376 4.20157 14.3105 3.99586 14.9986 3.99906C15.9267 3.99906 16.8168 4.36776 17.4731 5.02406C18.1294 5.68035 18.4981 6.57047 18.4981 7.49861C18.4981 8.42675 18.1294 9.31688 17.4731 9.97317C16.8168 10.6295 15.9267 10.9982 14.9986 10.9982C14.3105 11.0014 13.6376 10.7957 13.0688 10.4082ZM5.4998 7.49861C5.4998 6.80647 5.70504 6.12986 6.08958 5.55437C6.47411 4.97887 7.02067 4.53032 7.66013 4.26545C8.29959 4.00058 9.00323 3.93127 9.68208 4.0663C10.3609 4.20133 10.9845 4.53463 11.4739 5.02406C11.9633 5.51348 12.2966 6.13704 12.4317 6.81588C12.5667 7.49473 12.4974 8.19837 12.2325 8.83783C11.9676 9.47729 11.5191 10.0238 10.9436 10.4084C10.3681 10.7929 9.6915 10.9982 8.99935 10.9982C8.07121 10.9982 7.18109 10.6295 6.52479 9.97317C5.8685 9.31688 5.4998 8.42675 5.4998 7.49861ZM7.49954 7.49861C7.49954 7.79525 7.5875 8.08522 7.75231 8.33186C7.91711 8.5785 8.15134 8.77074 8.4254 8.88426C8.69945 8.99777 9.00101 9.02747 9.29195 8.9696C9.58288 8.91173 9.85012 8.76889 10.0599 8.55914C10.2696 8.34939 10.4125 8.08215 10.4703 7.79121C10.5282 7.50028 10.4985 7.19872 10.385 6.92466C10.2715 6.65061 10.0792 6.41637 9.8326 6.25157C9.58596 6.08677 9.29598 5.9988 8.99935 5.9988C8.60158 5.9988 8.22009 6.15682 7.93883 6.43809C7.65756 6.71936 7.49954 7.10084 7.49954 7.49861ZM15.9985 16.9974V18.9971H2.00024V16.9974C2.00024 16.9974 2.00024 12.9979 8.99935 12.9979C15.9985 12.9979 15.9985 16.9974 15.9985 16.9974ZM13.9987 16.9974C13.8587 16.2175 12.6689 14.9977 8.99935 14.9977C5.32982 14.9977 4.06998 16.3075 3.99999 16.9974M15.9485 12.9979C16.5613 13.4746 17.0624 14.0796 17.4165 14.7706C17.7706 15.4615 17.9691 16.2216 17.9982 16.9974V18.9971H21.9977V16.9974C21.9977 16.9974 21.9977 13.3679 15.9385 12.9979H15.9485Z" fill="#1F1F2D"/>
</svg>
